<?xml version="1.0" encoding="UTF-8"?>
<svg version="1.1" xmlns="http://www.w3.org/2000/svg" width="444" height="174">
<path d="M0 0 C0.84079102 -0.0065712 1.68158203 -0.0131424 2.54785156 -0.01991272 C5.34651777 -0.03971153 8.1451299 -0.05132858 10.94384766 -0.0612793 C11.90006641 -0.06535482 12.85628517 -0.06943035 13.84148026 -0.07362938 C18.9115706 -0.09452734 23.98163365 -0.10880763 29.05175781 -0.11816406 C34.27135029 -0.12918055 39.49051077 -0.16351427 44.7099514 -0.20333576 C48.73536932 -0.22959737 52.76068637 -0.2378648 56.7861824 -0.24144554 C58.70855216 -0.24629417 60.63091794 -0.25785855 62.55320358 -0.27648354 C87.08303777 -0.49919929 87.08303777 -0.49919929 96.48291016 8.40356445 C102.8696922 15.95460364 104.13665747 23.1424634 104.11230469 32.80688477 C104.11493317 34.09304184 104.11493317 34.09304184 104.11761475 35.40518188 C104.12200488 38.23018435 104.11910631 41.05512389 104.11572266 43.88012695 C104.11639626 45.84356702 104.11736676 47.807007 104.11862183 49.77044678 C104.12009474 53.87928056 104.11795635 57.98809258 104.11328125 62.09692383 C104.10756917 67.37550197 104.11087487 72.65402944 104.11685371 77.93260574 C104.12045748 81.98334133 104.11932186 86.03406478 104.11672592 90.08480072 C104.11605692 92.03215287 104.11688416 93.97950611 104.11920547 95.92685699 C104.12173059 98.6395004 104.11789411 101.35206013 104.11230469 104.06469727 C104.11432892 104.87611176 104.11635315 105.68752625 104.11843872 106.52352905 C104.09717584 112.06273627 104.09717584 112.06273627 102.98291016 113.17700195 C100.4189652 113.28275142 97.88182243 113.32378265 95.31713867 113.32226562 C94.51375565 113.32562424 93.71037262 113.32898285 92.88264465 113.33244324 C90.20901975 113.34199122 87.53545733 113.34389898 84.86181641 113.3449707 C83.0039009 113.34818318 81.14598565 113.35154724 79.28807068 113.35505676 C75.38141291 113.36105942 71.47477729 113.36289576 67.56811523 113.36230469 C62.58172807 113.36220358 57.59548498 113.37579688 52.60913181 113.3930769 C48.76475891 113.40424888 44.9204201 113.40622222 41.07603264 113.40569496 C39.23938442 113.40686952 37.40273516 113.41126165 35.56610298 113.41902733 C11.52061193 113.51108875 11.52061193 113.51108875 4.35791016 108.67700195 C3.70564453 108.25418945 3.05337891 107.83137695 2.38134766 107.39575195 C1.68912109 106.7924707 1.68912109 106.7924707 0.98291016 106.17700195 C0.98291016 105.51700195 0.98291016 104.85700195 0.98291016 104.17700195 C-0.00708984 103.84700195 -0.99708984 103.51700195 -2.01708984 103.17700195 C-11.15043892 93.04088161 -9.30191829 77.64228641 -9.24755859 64.98168945 C-9.24636455 63.13892652 -9.2459141 61.29616296 -9.24617004 59.45339966 C-9.24461498 55.61578493 -9.23639434 51.77826479 -9.22290039 47.94067383 C-9.20579161 43.01201316 -9.20208998 38.08345489 -9.20284557 33.15476799 C-9.20257454 29.36138932 -9.197106 25.56803321 -9.18984413 21.77466202 C-9.18665615 19.95570165 -9.18468975 18.13673873 -9.18395042 16.31777573 C-9.18179501 13.79017456 -9.17307183 11.26268484 -9.16235352 8.73510742 C-9.1628067 7.97987289 -9.16325989 7.22463837 -9.16372681 6.44651794 C-9.11688006 -1.0649463 -6.73824975 0.02259198 0 0 Z M12.98291016 21.17700195 C12.86704619 29.84352132 12.77821089 38.50977401 12.7238493 47.17689896 C12.69775784 51.20146291 12.66236959 55.22549692 12.60571289 59.24975586 C12.55137464 63.13365635 12.52148622 67.01704725 12.50852394 70.90129852 C12.49928709 72.38293227 12.48124904 73.86453819 12.45425987 75.3459549 C12.41794116 77.42208545 12.41296535 79.49611251 12.4152832 81.57250977 C12.40418015 82.75387512 12.39307709 83.93524048 12.38163757 85.15240479 C12.74460336 88.31579457 12.74460336 88.31579457 15.10998535 90.56140137 C18.53527856 92.4876285 20.60197908 92.66151404 24.51733398 92.63110352 C25.81830521 92.63080139 27.11927643 92.63049927 28.45967102 92.63018799 C29.86976744 92.60976436 31.27985755 92.58890043 32.68994141 92.56762695 C34.14010334 92.56016116 35.5902754 92.55446982 37.04045105 92.55047607 C40.84650817 92.53524608 44.65194905 92.49598811 48.45776367 92.45166016 C52.34561834 92.41064989 56.23357314 92.39245285 60.12158203 92.37231445 C67.74230486 92.32949033 75.36252097 92.26127219 82.98291016 92.17700195 C83.05243205 83.64078503 83.10573234 75.10468647 83.13834667 66.56825638 C83.15400024 62.60440315 83.17523259 58.64074367 83.20922852 54.67700195 C83.24183342 50.85148973 83.2597655 47.02616383 83.26754189 43.20052338 C83.2730834 41.74127011 83.28390471 40.282027 83.30010033 38.82285309 C83.32189048 36.77824396 83.32487655 34.7344039 83.32348633 32.68969727 C83.33014816 31.5260968 83.33681 30.36249634 83.34367371 29.16363525 C82.94453153 25.8592789 82.32545902 24.50442681 79.98291016 22.17700195 C76.67884381 21.0756465 74.24647322 21.05664132 70.76733398 21.06347656 C68.84568169 21.06358986 68.84568169 21.06358986 66.88520813 21.06370544 C65.48678549 21.06881208 64.08836326 21.07402808 62.68994141 21.0793457 C61.25933379 21.08121107 59.82872554 21.08263441 58.39811707 21.08363342 C54.63504265 21.08744929 50.8720069 21.09727163 47.10894775 21.1083374 C43.26811242 21.11857152 39.42727083 21.12313533 35.58642578 21.12817383 C28.05190295 21.13889473 20.51741198 21.15595999 12.98291016 21.17700195 Z " fill="#24AF3B" transform="translate(88.01708984375,59.822998046875)"/>
<path d="M0 0 C8 0 8 0 9.69921875 1.3984375 C10.02535156 2.05070312 10.35148437 2.70296875 10.6875 3.375 C11.25597656 4.45394531 11.25597656 4.45394531 11.8359375 5.5546875 C12.22007812 6.36164063 12.60421875 7.16859375 13 8 C13.46664063 8.91007812 13.93328125 9.82015625 14.4140625 10.7578125 C15.63855968 13.15892149 16.83062802 15.57168711 18 18 C18.23710693 17.49025635 18.47421387 16.9805127 18.71850586 16.45532227 C19.78925593 14.15665983 20.86333195 11.85956706 21.9375 9.5625 C22.31068359 8.76005859 22.68386719 7.95761719 23.06835938 7.13085938 C23.42607422 6.36708984 23.78378906 5.60332031 24.15234375 4.81640625 C24.48226318 4.10943604 24.81218262 3.40246582 25.15209961 2.67407227 C26 1 26 1 27 0 C29.67058851 -0.14115161 32.32432238 -0.04247107 35 0 C36.11984119 3.35952356 36.028066 5.66910457 35.87890625 9.19921875 C35.83056641 10.40771484 35.78222656 11.61621094 35.73242188 12.86132812 C35.67634766 14.12396484 35.62027344 15.38660156 35.5625 16.6875 C35.51029297 17.96173828 35.45808594 19.23597656 35.40429688 20.54882812 C35.27449555 23.69946039 35.1395244 26.84978577 35 30 C32.66705225 30.04241723 30.33297433 30.04092937 28 30 C26.03177114 28.03177114 26.33751619 24.65191291 26 22 C24.68 24.64 23.36 27.28 22 30 C19.03 30 16.06 30 13 30 C12.01 28.02 11.02 26.04 10 24 C9.34 25.98 8.68 27.96 8 30 C5.36 30 2.72 30 0 30 C0 20.1 0 10.2 0 0 Z " fill="#26B03D" transform="translate(291,106)"/>
<path d="M0 0 C0.85464844 -0.00708984 1.70929688 -0.01417969 2.58984375 -0.02148438 C10.18267522 0.05551002 10.18267522 0.05551002 13.5 3.4375 C13.98583984 5.76586914 13.98583984 5.76586914 13.9609375 8.47265625 C13.95707031 9.44654297 13.95320313 10.42042969 13.94921875 11.42382812 C13.92472656 12.43896484 13.90023437 13.45410156 13.875 14.5 C13.87371094 15.51900391 13.87242188 16.53800781 13.87109375 17.58789062 C13.78080986 25.15669014 13.78080986 25.15669014 11.5 27.4375 C7.68545714 27.89170837 3.83847486 27.76154776 0 27.75 C-1.60681641 27.77416992 -1.60681641 27.77416992 -3.24609375 27.79882812 C-4.26832031 27.79947266 -5.29054688 27.80011719 -6.34375 27.80078125 C-7.28412109 27.80376221 -8.22449219 27.80674316 -9.19335938 27.80981445 C-10.33514648 27.6255188 -10.33514648 27.6255188 -11.5 27.4375 C-14.33791629 23.18062556 -13.86791418 19.50612918 -13.875 14.5 C-13.89949219 13.59314453 -13.92398438 12.68628906 -13.94921875 11.75195312 C-13.96613932 7.91944411 -13.93522113 5.22945975 -12.0703125 1.8359375 C-8.11316635 -0.31703868 -4.4309306 -0.10358888 0 0 Z " fill="#29B140" transform="translate(62.5,29.5625)"/>
<path d="M0 0 C0.84498047 0.00821777 1.68996094 0.01643555 2.56054688 0.02490234 C3.48480469 0.02876953 4.4090625 0.03263672 5.36132812 0.03662109 C6.32425781 0.06111328 7.2871875 0.08560547 8.27929688 0.11083984 C9.24222656 0.11212891 10.20515625 0.11341797 11.19726562 0.11474609 C18.35747185 0.20462316 18.35747185 0.20462316 21.77929688 2.48583984 C22.16748047 4.68481445 22.16748047 4.68481445 22.17773438 7.38818359 C22.18353516 8.84708008 22.18353516 8.84708008 22.18945312 10.33544922 C22.17785156 11.35445312 22.16625 12.37345703 22.15429688 13.42333984 C22.16589844 14.43847656 22.1775 15.45361328 22.18945312 16.49951172 C22.18558594 17.47339844 22.18171875 18.44728516 22.17773438 19.45068359 C22.17435059 20.34392334 22.1709668 21.23716309 22.16748047 22.1574707 C21.77929688 24.48583984 21.77929688 24.48583984 20.53735352 26.2734375 C17.09460711 28.64764645 12.88364733 27.95480506 8.84179688 27.92333984 C7.93494141 27.94332031 7.02808594 27.96330078 6.09375 27.98388672 C2.264109 27.98106873 -0.43488414 27.91886622 -3.82226562 26.05224609 C-5.97698968 22.09790614 -5.76174849 18.41490915 -5.65820312 13.98583984 C-5.66529297 13.13119141 -5.67238281 12.27654297 -5.6796875 11.39599609 C-5.5764989 1.2200124 -5.5764989 1.2200124 0 0 Z " fill="#72E285" transform="translate(54.220703125,59.51416015625)"/>
<path d="M0 0 C0.89323975 0.00821777 1.78647949 0.01643555 2.70678711 0.02490234 C3.68067383 0.02876953 4.65456055 0.03263672 5.65795898 0.03662109 C6.6730957 0.06111328 7.68823242 0.08560547 8.73413086 0.11083984 C10.26263672 0.11277344 10.26263672 0.11277344 11.82202148 0.11474609 C19.390821 0.20502998 19.390821 0.20502998 21.67163086 2.48583984 C21.89868164 4.82421875 21.89868164 4.82421875 21.86694336 7.71240234 C21.86049805 8.74365234 21.85405273 9.77490234 21.84741211 10.83740234 C21.8306543 11.91763672 21.81389648 12.99787109 21.79663086 14.11083984 C21.78760742 15.19880859 21.77858398 16.28677734 21.76928711 17.40771484 C21.74566495 20.10064136 21.71272642 22.7931324 21.67163086 25.48583984 C17.24554833 27.41030664 13.45327663 27.78877319 8.67163086 27.73583984 C7.97295898 27.74357422 7.27428711 27.75130859 6.55444336 27.75927734 C2.52328549 27.74406543 -0.78932396 27.49666097 -4.32836914 25.48583984 C-5.66779196 21.4675714 -5.55175739 17.75632297 -5.57836914 13.54833984 C-5.59899414 12.736875 -5.61961914 11.92541016 -5.64086914 11.08935547 C-5.64602539 10.30367187 -5.65118164 9.51798828 -5.65649414 8.70849609 C-5.66583984 7.99443604 -5.67518555 7.28037598 -5.68481445 6.54467773 C-5.05519836 2.90799793 -3.69093129 0.77015343 0 0 Z " fill="#31D64D" transform="translate(84.328369140625,0.51416015625)"/>
<path d="M0 0 C0.81597656 -0.01224609 1.63195312 -0.02449219 2.47265625 -0.03710938 C3.65794922 -0.04000977 3.65794922 -0.04000977 4.8671875 -0.04296875 C5.5876123 -0.04707764 6.30803711 -0.05118652 7.05029297 -0.05541992 C9.42938021 0.22313878 11.05521855 1.01097118 13.125 2.1875 C13.18286668 5.97910297 13.21855054 9.77059311 13.25 13.5625 C13.26675781 14.64273438 13.28351563 15.72296875 13.30078125 16.8359375 C13.30722656 17.8671875 13.31367187 18.8984375 13.3203125 19.9609375 C13.33078613 20.91403809 13.34125977 21.86713867 13.35205078 22.84912109 C13.125 25.1875 13.125 25.1875 11.125 27.1875 C8.91015625 27.44628906 8.91015625 27.44628906 6.1875 27.453125 C5.21039063 27.45570312 4.23328125 27.45828125 3.2265625 27.4609375 C2.20304687 27.45320313 1.17953125 27.44546875 0.125 27.4375 C-0.89851563 27.44523437 -1.92203125 27.45296875 -2.9765625 27.4609375 C-3.95367187 27.45835938 -4.93078125 27.45578125 -5.9375 27.453125 C-6.83597656 27.45086914 -7.73445313 27.44861328 -8.66015625 27.44628906 C-10.875 27.1875 -10.875 27.1875 -12.875 25.1875 C-13.98182519 21.21428136 -14.07187287 17.29599802 -14.125 13.1875 C-14.15078125 11.99125 -14.1765625 10.795 -14.203125 9.5625 C-13.84903478 5.92042919 -13.06667086 4.08135666 -10.875 1.1875 C-7.4994732 -0.5002634 -3.70876289 0.00290201 0 0 Z " fill="#5FDF75" transform="translate(92.875,29.8125)"/>
<path d="M0 0 C2.21484375 -0.37231445 2.21484375 -0.37231445 4.9375 -0.36328125 C5.91460938 -0.36263672 6.89171875 -0.36199219 7.8984375 -0.36132812 C9.43371094 -0.3371582 9.43371094 -0.3371582 11 -0.3125 C12.02351563 -0.31572266 13.04703125 -0.31894531 14.1015625 -0.32226562 C21.73310839 -0.26689161 21.73310839 -0.26689161 24 2 C24.45420837 5.81454286 24.32404776 9.66152514 24.3125 13.5 C24.32861328 14.57121094 24.34472656 15.64242187 24.36132812 16.74609375 C24.36197266 17.76832031 24.36261719 18.79054688 24.36328125 19.84375 C24.36626221 20.78412109 24.36924316 21.72449219 24.37231445 22.69335938 C24.1880188 23.83514648 24.1880188 23.83514648 24 25 C19.72800275 27.84799817 16.02201715 27.33018316 11 27.3125 C9.62714844 27.33666992 9.62714844 27.33666992 8.2265625 27.36132812 C7.34742188 27.36197266 6.46828125 27.36261719 5.5625 27.36328125 C4.35787109 27.36775269 4.35787109 27.36775269 3.12890625 27.37231445 C1 27 1 27 -0.76245117 25.77612305 C-2.37363068 23.46376737 -2.37317702 22.02379941 -2.36328125 19.21875 C-2.36263672 18.29449219 -2.36199219 17.37023437 -2.36132812 16.41796875 C-2.34521484 15.45503906 -2.32910156 14.49210937 -2.3125 13.5 C-2.31572266 12.53707031 -2.31894531 11.57414062 -2.32226562 10.58203125 C-2.26717923 3.40076885 -2.26717923 3.40076885 0 0 Z " fill="#56DD6C" transform="translate(22,60)"/>
<path d="M0 0 C5.46104896 3.20198194 5.46104896 3.20198194 6.45703125 6.1953125 C6.54855469 6.79859375 6.64007813 7.401875 6.734375 8.0234375 C2.109375 11.0234375 2.109375 11.0234375 -1.265625 11.0234375 C-1.265625 10.3634375 -1.265625 9.7034375 -1.265625 9.0234375 C-4.31679106 8.73559165 -7.22332676 8.59880577 -10.265625 9.0234375 C-12.67205082 11.0062621 -12.67205082 11.0062621 -13.265625 14.0234375 C-12.45274504 17.86523333 -12.45274504 17.86523333 -10.265625 21.0234375 C-8.74634462 21.09523714 -7.22395018 21.10735757 -5.703125 21.0859375 C-4.87683594 21.07691406 -4.05054688 21.06789063 -3.19921875 21.05859375 C-2.56113281 21.04699219 -1.92304688 21.03539063 -1.265625 21.0234375 C-1.265625 20.3634375 -1.265625 19.7034375 -1.265625 19.0234375 C-2.4 19.0440625 -3.534375 19.0646875 -4.703125 19.0859375 C-8.265625 19.0234375 -8.265625 19.0234375 -9.265625 18.0234375 C-9.30626332 16.35726635 -9.308346 14.68955655 -9.265625 13.0234375 C-6.41367278 11.59746139 -3.94101325 11.8914123 -0.765625 11.8984375 C0.3996875 11.89585938 1.565 11.89328125 2.765625 11.890625 C5.734375 12.0234375 5.734375 12.0234375 7.734375 13.0234375 C8.80042303 22.53326283 8.80042303 22.53326283 6.28125 26.0546875 C1.79699003 29.8983389 -2.04552909 31.40790059 -8.07421875 31.296875 C-12.6460857 30.72641032 -16.51730161 28.91909152 -19.65625 25.515625 C-22.68211225 20.93421384 -23.03306005 16.37653382 -22.265625 11.0234375 C-20.94112078 6.53483987 -19.94666631 4.5625952 -16.265625 1.6484375 C-10.97265053 -1.21859034 -5.66121323 -2.44017812 0 0 Z " fill="#2BB241" transform="translate(400.265625,105.9765625)"/>
<path d="M0 0 C1.40958984 -0.00193359 1.40958984 -0.00193359 2.84765625 -0.00390625 C3.83636719 -0.00003906 4.82507813 0.00382812 5.84375 0.0078125 C7.32681641 0.00201172 7.32681641 0.00201172 8.83984375 -0.00390625 C9.77957031 -0.00261719 10.71929687 -0.00132813 11.6875 0 C12.55568359 0.00112793 13.42386719 0.00225586 14.31835938 0.00341797 C16.34375 0.1328125 16.34375 0.1328125 17.34375 1.1328125 C17.46875 4.1328125 17.46875 4.1328125 17.34375 7.1328125 C16.34375 8.1328125 16.34375 8.1328125 13.40234375 8.23046875 C11.60990234 8.21306641 11.60990234 8.21306641 9.78125 8.1953125 C7.98494141 8.18177734 7.98494141 8.18177734 6.15234375 8.16796875 C5.22550781 8.15636719 4.29867188 8.14476563 3.34375 8.1328125 C3.34375 9.1228125 3.34375 10.1128125 3.34375 11.1328125 C4.05402344 11.12121094 4.76429688 11.10960938 5.49609375 11.09765625 C6.41519531 11.08863281 7.33429688 11.07960938 8.28125 11.0703125 C9.19777344 11.05871094 10.11429687 11.04710938 11.05859375 11.03515625 C13.34375 11.1328125 13.34375 11.1328125 14.34375 12.1328125 C14.38467937 14.46578683 14.38616723 16.79986475 14.34375 19.1328125 C10.71375 19.1328125 7.08375 19.1328125 3.34375 19.1328125 C3.34375 20.1228125 3.34375 21.1128125 3.34375 22.1328125 C4.73400391 22.11541016 4.73400391 22.11541016 6.15234375 22.09765625 C7.34988281 22.08863281 8.54742187 22.07960938 9.78125 22.0703125 C10.97621094 22.05871094 12.17117188 22.04710938 13.40234375 22.03515625 C16.34375 22.1328125 16.34375 22.1328125 17.34375 23.1328125 C17.34375 25.4428125 17.34375 27.7528125 17.34375 30.1328125 C9.75375 30.1328125 2.16375 30.1328125 -5.65625 30.1328125 C-5.67916394 26.02103323 -5.69908951 21.90941592 -5.71118164 17.79760742 C-5.7162208 16.39786022 -5.72305216 14.9981183 -5.73168945 13.59838867 C-5.7437732 11.59035473 -5.74894807 9.58228293 -5.75390625 7.57421875 C-5.75914307 6.36451416 -5.76437988 5.15480957 -5.76977539 3.90844727 C-5.58437543 -0.62448199 -4.08639296 0.00530897 0 0 Z " fill="#24AF3B" transform="translate(424.65625,105.8671875)"/>
<path d="M0 0 C2.64 0 5.28 0 8 0 C12.91482589 9.50037063 17.40577346 18.90851779 21 29 C20 30 20 30 18.15234375 30.09765625 C16.1015625 30.06510417 14.05078125 30.03255208 12 30 C11.67 28.68 11.34 27.36 11 26 C8.87422093 26.0868276 6.74930419 26.1949951 4.625 26.3125 C3.44164062 26.37050781 2.25828125 26.42851562 1.0390625 26.48828125 C0.03617187 26.65714844 -0.96671875 26.82601562 -2 27 C-2.66 27.99 -3.32 28.98 -4 30 C-5.9453125 30.29296875 -5.9453125 30.29296875 -8.125 30.1875 C-9.40375 30.125625 -10.6825 30.06375 -12 30 C-11.37981297 24.76562149 -9.71653619 20.37348519 -7.6875 15.5625 C-7.39166016 14.83740234 -7.09582031 14.11230469 -6.79101562 13.36523438 C-4.84389673 8.68457924 -2.59811071 4.35312588 0 0 Z M3 13 C2.34 14.65 1.68 16.3 1 18 C2.98 18 4.96 18 7 18 C6.34 16.35 5.68 14.7 5 13 C4.34 13 3.68 13 3 13 Z " fill="#26B03C" transform="translate(350,106)"/>
<path d="M0 0 C0.84079102 -0.0065712 1.68158203 -0.0131424 2.54785156 -0.01991272 C5.34651777 -0.03971153 8.1451299 -0.05132858 10.94384766 -0.0612793 C11.90006641 -0.06535482 12.85628517 -0.06943035 13.84148026 -0.07362938 C18.9115706 -0.09452734 23.98163365 -0.10880763 29.05175781 -0.11816406 C34.27135029 -0.12918055 39.49051077 -0.16351427 44.7099514 -0.20333576 C48.73536932 -0.22959737 52.76068637 -0.2378648 56.7861824 -0.24144554 C58.70855216 -0.24629417 60.63091794 -0.25785855 62.55320358 -0.27648354 C75.52233976 -0.39423529 87.13361155 -0.4060994 96.98291016 9.17700195 C96.65291016 9.83700195 96.32291016 10.49700195 95.98291016 11.17700195 C94.99291016 11.17700195 94.00291016 11.17700195 92.98291016 11.17700195 C92.65291016 11.50700195 92.32291016 11.83700195 91.98291016 12.17700195 C90.46362978 12.24880159 88.94123534 12.26092203 87.42041016 12.23950195 C86.59412109 12.23047852 85.76783203 12.22145508 84.91650391 12.2121582 C84.27841797 12.20055664 83.64033203 12.18895508 82.98291016 12.17700195 C81.99291016 10.19700195 81.99291016 10.19700195 80.98291016 8.17700195 C83.95291016 8.50700195 86.92291016 8.83700195 89.98291016 9.17700195 C88.36361472 5.93841108 85.23624605 5.50039282 81.98291016 4.17700195 C80.64277518 3.52411568 79.30549488 2.86474601 77.98291016 2.17700195 C77.98291016 3.16700195 77.98291016 4.15700195 77.98291016 5.17700195 C74.35291016 5.17700195 70.72291016 5.17700195 66.98291016 5.17700195 C67.47791016 6.66200195 67.47791016 6.66200195 67.98291016 8.17700195 C70.95291016 8.17700195 73.92291016 8.17700195 76.98291016 8.17700195 C76.32291016 9.49700195 75.66291016 10.81700195 74.98291016 12.17700195 C71.9299429 12.4705565 69.02787084 12.59627365 65.98291016 12.17700195 C63.42041016 9.98950195 63.42041016 9.98950195 61.98291016 7.17700195 C61.98291016 5.52700195 61.98291016 3.87700195 61.98291016 2.17700195 C39.21291016 2.17700195 16.44291016 2.17700195 -7.01708984 2.17700195 C-7.01708984 28.90700195 -7.01708984 55.63700195 -7.01708984 83.17700195 C-7.67708984 83.17700195 -8.33708984 83.17700195 -9.01708984 83.17700195 C-9.04021312 72.50280497 -9.05800485 61.8286139 -9.06890202 51.15439701 C-9.07413088 46.19846274 -9.08122858 41.24254554 -9.0925293 36.28662109 C-9.10335807 31.5080136 -9.10936665 26.72942257 -9.11196709 21.95080376 C-9.11382136 20.12346576 -9.117442 18.29612871 -9.1228199 16.46879768 C-9.1300302 13.91846867 -9.13108079 11.36820859 -9.13061523 8.81787109 C-9.13421051 8.05470581 -9.13780579 7.29154053 -9.14151001 6.50524902 C-9.12648074 -1.05315148 -6.78540149 0.02275007 0 0 Z " fill="#47BB5A" transform="translate(88.01708984375,59.822998046875)"/>
<path d="M0 0 C3.6578218 2.03993908 5.66946174 3.50419262 8 7 C8.52173913 15.2173913 8.52173913 15.2173913 6 19 C5.34 19 4.68 19 4 19 C3.67 19.99 3.34 20.98 3 22 C4.65 22.66 6.3 23.32 8 24 C8.04254356 25.99954746 8.04080783 28.00041636 8 30 C7 31 7 31 4.95874023 31.11352539 C4.08419189 31.10828857 3.20964355 31.10305176 2.30859375 31.09765625 C1.36435547 31.09443359 0.42011719 31.09121094 -0.55273438 31.08789062 C-2.04256836 31.07532227 -2.04256836 31.07532227 -3.5625 31.0625 C-4.55958984 31.05798828 -5.55667969 31.05347656 -6.58398438 31.04882812 C-9.05604849 31.03700007 -11.52799518 31.02051849 -14 31 C-14.47451232 23.59148512 -14.47451232 23.59148512 -12.3203125 20.90625 C-11.59585938 20.4421875 -10.87140625 19.978125 -10.125 19.5 C-9.40570313 19.0153125 -8.68640625 18.530625 -7.9453125 18.03125 C-6 17 -6 17 -4 17 C-2.23537317 13.91190305 -2 12.76687864 -2 9 C-2.61875 9.309375 -3.2375 9.61875 -3.875 9.9375 C-8 12 -8 12 -11.125 11.0625 C-12.07375 10.711875 -13.0225 10.36125 -14 10 C-13.70179167 6.42150008 -13.25754642 5.23773516 -10.5625 2.75 C-6.72873063 0.13181604 -4.68014291 -0.45001374 0 0 Z " fill="#26B03C" transform="translate(250,105)"/>
<path d="M0 0 C4.31248609 -0.02886537 8.62494762 -0.04675255 12.9375 -0.0625 C14.16919922 -0.07087891 15.40089844 -0.07925781 16.66992188 -0.08789062 C17.83974609 -0.09111328 19.00957031 -0.09433594 20.21484375 -0.09765625 C21.84087524 -0.10551147 21.84087524 -0.10551147 23.49975586 -0.11352539 C26 0 26 0 27 1 C27.125 4 27.125 4 27 7 C26.67 7.33 26.34 7.66 26 8 C23.03 8 20.06 8 17 8 C17 15.26 17 22.52 17 30 C14.36 30 11.72 30 9 30 C9 22.74 9 15.48 9 8 C6.03 8 3.06 8 0 8 C-1.09658936 4.71023192 -0.79953138 3.28696233 0 0 Z " fill="#25AF3C" transform="translate(199,106)"/>
<path d="M0 0 C3.5 0.125 3.5 0.125 4.5 1.125 C4.59993532 3.1855531 4.63080906 5.2495259 4.6328125 7.3125 C4.63474609 9.19582031 4.63474609 9.19582031 4.63671875 11.1171875 C4.63357666 12.10283691 4.63357666 12.10283691 4.63037109 13.10839844 C4.62502234 15.11661335 4.63031691 17.12460459 4.63671875 19.1328125 C4.63542969 20.38835937 4.63414062 21.64390625 4.6328125 22.9375 C4.63168457 24.09894531 4.63055664 25.26039063 4.62939453 26.45703125 C4.5 29.125 4.5 29.125 3.5 30.125 C0.82941149 30.26615161 -1.82432238 30.16747107 -4.5 30.125 C-4.52465746 26.0132744 -4.54283959 21.90157722 -4.55493164 17.78979492 C-4.5599708 16.39004772 -4.56680216 14.9903058 -4.57543945 13.59057617 C-4.5875232 11.58254223 -4.59269807 9.57447043 -4.59765625 7.56640625 C-4.60289307 6.35670166 -4.60812988 5.14699707 -4.61352539 3.90063477 C-4.44480133 -0.22457777 -4.24733448 0.15169052 0 0 Z " fill="#26AD43" transform="translate(274.5,105.875)"/>
<path d="M0 0 C1.093125 0.00257812 2.18625 0.00515625 3.3125 0.0078125 C4.405625 0.00523438 5.49875 0.00265625 6.625 0 C9.3125 0.1328125 9.3125 0.1328125 10.3125 1.1328125 C10.41123816 3.13080822 10.44221799 5.13238408 10.4375 7.1328125 C10.44007812 8.2259375 10.44265625 9.3190625 10.4453125 10.4453125 C10.3125 13.1328125 10.3125 13.1328125 9.3125 14.1328125 C7.31450428 14.23155066 5.31292842 14.26253049 3.3125 14.2578125 C2.219375 14.26039062 1.12625 14.26296875 0 14.265625 C-2.6875 14.1328125 -2.6875 14.1328125 -3.6875 13.1328125 C-3.78623816 11.13481678 -3.81721799 9.13324092 -3.8125 7.1328125 C-3.81507812 6.0396875 -3.81765625 4.9465625 -3.8203125 3.8203125 C-3.64172116 0.20646411 -3.61384839 0.17859134 0 0 Z " fill="#5FDE74" transform="translate(23.6875,42.8671875)"/>
<path d="M0 0 C5.94 0 11.88 0 18 0 C18 5 18 5 15.75 7.8125 C11.1823963 11.34301493 5.46269872 10.39776932 0 10 C0 6.7 0 3.4 0 0 Z " fill="#37B54C" transform="translate(129,62)"/>
<path d="M0 0 C1.20462891 -0.02126953 1.20462891 -0.02126953 2.43359375 -0.04296875 C4.5625 0.1875 4.5625 0.1875 6.5625 2.1875 C6.79296875 4.0625 6.79296875 4.0625 6.75 6.1875 C6.74033203 7.239375 6.74033203 7.239375 6.73046875 8.3125 C6.5625 10.1875 6.5625 10.1875 5.5625 12.1875 C3.91675434 12.21438151 2.27088587 12.23384123 0.625 12.25 C-0.29152344 12.26160156 -1.20804688 12.27320312 -2.15234375 12.28515625 C-4.4375 12.1875 -4.4375 12.1875 -5.4375 11.1875 C-5.53573937 9.52320949 -5.56723631 7.85468069 -5.5625 6.1875 C-5.56507813 5.28 -5.56765625 4.3725 -5.5703125 3.4375 C-5.33551659 -0.54021891 -3.53720995 0.02829768 0 0 Z " fill="#2CB241" transform="translate(11.4375,54.8125)"/>
<path d="M0 0 C5.28 0 10.56 0 16 0 C16 0.99 16 1.98 16 3 C12.37 3 8.74 3 5 3 C5.33 3.99 5.66 4.98 6 6 C8.97 6 11.94 6 15 6 C14.34 7.32 13.68 8.64 13 10 C9.94703274 10.29355454 7.04496069 10.4192717 4 10 C1.4375 7.8125 1.4375 7.8125 0 5 C0 3.35 0 1.7 0 0 Z " fill="#37B54C" transform="translate(150,62)"/>
<path d="M0 0 C5.72822227 1.40282994 12.09251898 3.01437754 15.4375 8.25 C15.623125 8.8275 15.80875 9.405 16 10 C15.01 9.67 14.02 9.34 13 9 C12.34 9.66 11.68 10.32 11 11 C8.8359375 11.1953125 8.8359375 11.1953125 6.375 11.125 C5.55773437 11.10695313 4.74046875 11.08890625 3.8984375 11.0703125 C3.27195313 11.04710938 2.64546875 11.02390625 2 11 C1.34 9.68 0.68 8.36 0 7 C2.97 7.33 5.94 7.66 9 8 C8.06271398 5.5775463 8.06271398 5.5775463 4.5 4.5625 C2.7675 3.7890625 2.7675 3.7890625 1 3 C0.67 2.01 0.34 1.02 0 0 Z " fill="#35BA48" transform="translate(169,61)"/>
<path d="M0 0 C2.97 0 5.94 0 9 0 C8.625 2.4375 8.625 2.4375 8 5 C5.29120665 6.35439668 2.99066732 6.06501451 0 6 C0 4.02 0 2.04 0 0 Z " fill="#22A938" transform="translate(134,62)"/>
<path d="M0 0 C0.99 0.495 0.99 0.495 2 1 C2 1.99 2 2.98 2 4 C6.29 4 10.58 4 15 4 C15 4.99 15 5.98 15 7 C10.05 6.67 5.1 6.34 0 6 C0 4.02 0 2.04 0 0 Z " fill="#3FBA54" transform="translate(426,124)"/>
<path d="M0 0 C2.90092502 2.90092502 3.55461795 3.96517325 4.6875 7.6875 C4.93886719 8.49574219 5.19023437 9.30398437 5.44921875 10.13671875 C5.63097656 10.75160156 5.81273437 11.36648437 6 12 C5.01 11.01 4.02 10.02 3 9 C2.67 10.32 2.34 11.64 2 13 C1.34 13 0.68 13 0 13 C0 8.71 0 4.42 0 0 Z " fill="#44B959" transform="translate(298,121)"/>
<path d="M0 0 C0.99 0.495 0.99 0.495 2 1 C2 1.99 2 2.98 2 4 C2.71027344 3.98839844 3.42054688 3.97679688 4.15234375 3.96484375 C5.07144531 3.95582031 5.99054688 3.94679688 6.9375 3.9375 C7.85402344 3.92589844 8.77054687 3.91429688 9.71484375 3.90234375 C12 4 12 4 13 5 C13.04080783 6.99958364 13.04254356 9.00045254 13 11 C12.67 11 12.34 11 12 11 C12 9.35 12 7.7 12 6 C8.04 6 4.08 6 0 6 C0 4.02 0 2.04 0 0 Z " fill="#5EC56E" transform="translate(426,113)"/>
<path d="M0 0 C7.875 0.875 7.875 0.875 9 2 C9.04063832 3.66617115 9.042721 5.33388095 9 7 C8.34 7 7.68 7 7 7 C7 5.68 7 4.36 7 3 C4.36 3 1.72 3 -1 3 C-0.67 2.01 -0.34 1.02 0 0 Z " fill="#3CB850" transform="translate(249,127)"/>
<path d="M0 0 C2.64 0 5.28 0 8 0 C8.33 0.99 8.66 1.98 9 3 C6.03 3 3.06 3 0 3 C0 2.01 0 1.02 0 0 Z " fill="#4EBD60" transform="translate(350,123)"/>
<path d="M0 0 C2.35171131 0.59861742 4.6859378 1.26924352 7 2 C7.33 2.66 7.66 3.32 8 4 C6.02 4 4.04 4 2 4 C1.34 2.68 0.68 1.36 0 0 Z " fill="#40B753" transform="translate(169,61)"/>
<path d="M0 0 C0.99 0.495 0.99 0.495 2 1 C2 1.99 2 2.98 2 4 C3.32 4.33 4.64 4.66 6 5 C5 6 5 6 2.4375 6.0625 C1.2309375 6.0315625 1.2309375 6.0315625 0 6 C0 4.02 0 2.04 0 0 Z " fill="#4BBD5E" transform="translate(426,124)"/>
</svg>
